<?xml version="1.0" encoding="UTF-8"?>
<svg width="271px" height="241px" viewBox="0 0 271 241" version="1.1" xmlns="http://www.w3.org/2000/svg" xmlns:xlink="http://www.w3.org/1999/xlink">
    <!-- Generator: Sketch 48.1 (47250) - http://www.bohemiancoding.com/sketch -->
    <title>Tablet Copy 4</title>
    <desc>Created with Sketch.</desc>
    <defs></defs>
    <g id="Symbols" stroke="none" stroke-width="1" fill="none" fill-rule="evenodd">
        <g id="Tablet-Copy-4">
            <circle id="Oval-2-Copy" fill="#555454" cx="120.5" cy="116.5" r="37.5"></circle>
            <path d="M122.683961,94 C114.909515,94 107.582438,97.5424569 104.017749,104.573132 C103.958133,104.690805 106.954245,105.321961 106.978493,105.255316 C108.97844,99.7586207 116.204746,96.7359195 122.683961,96.7359195 C131.137949,96.7359195 140.668855,103.991379 140.668855,113.661566 C140.668855,123.331753 132.5,131.465517 122.683961,131.465517 L109,131.465517 L117,127.5 L116,124.5 C116,124.440661 111.333333,127.107328 102,132.5 L116,141 L117,138 L109,134.199928 L122.683961,134.199928 C134.158633,134.199928 143.493777,124.986279 143.493777,113.661063 C143.493777,102.268463 134.158633,94 122.683961,94 Z" id="Shape-Copy" fill="#FFFFFF" fill-rule="nonzero"></path>
        </g>
    </g>
</svg>