<svg xmlns="http://www.w3.org/2000/svg" xmlns:xlink="http://www.w3.org/1999/xlink" viewBox="0 0 24 30"><defs><style>.cls-1{clip-rule:evenodd;}.cls-2{fill-rule:evenodd;}.cls-3{clip-path:url(#clip-path);}.cls-4{clip-path:url(#clip-path-2);}.cls-5{isolation:isolate;}.cls-6{clip-path:url(#clip-path-3);}</style><clipPath id="clip-path"><path class="cls-1" d="M7.33,5.26,6,6.05H6a1.94,1.94,0,0,0-.92,2.13A32.53,32.53,0,0,0,8.5,16.91a32.75,32.75,0,0,0,5.87,7.4,1.93,1.93,0,0,0,2.33.26l1.35-.81a2,2,0,0,0,.68-2.66,2.15,2.15,0,0,0-.18-.24l-2.46-3a1.29,1.29,0,0,0-1.64-.3l-.46.26h0a1.31,1.31,0,0,1-1.66-.3,17.14,17.14,0,0,1-1.41-2,16.25,16.25,0,0,1-1.05-2.24,1.3,1.3,0,0,1,.56-1.59l.46-.26a1.3,1.3,0,0,0,.56-1.57L10.12,6.27A1.94,1.94,0,0,0,7.63,5.12Z"/></clipPath><clipPath id="clip-path-2"><rect x="5" y="5" width="14" height="20"/></clipPath><clipPath id="clip-path-3"><rect width="24" height="30"/></clipPath></defs><title>Asset 5</title><g id="Layer_2" data-name="Layer 2"><g id="Layer_1-2" data-name="Layer 1"><path class="cls-2" d="M7.33,5.26,6,6.05H6a1.94,1.94,0,0,0-.92,2.13A32.53,32.53,0,0,0,8.5,16.91a32.75,32.75,0,0,0,5.87,7.4,1.93,1.93,0,0,0,2.33.26l1.35-.81a2,2,0,0,0,.68-2.66,2.15,2.15,0,0,0-.18-.24l-2.46-3a1.29,1.29,0,0,0-1.64-.3l-.46.26h0a1.31,1.31,0,0,1-1.66-.3,17.14,17.14,0,0,1-1.41-2,16.25,16.25,0,0,1-1.05-2.24,1.3,1.3,0,0,1,.56-1.59l.46-.26a1.3,1.3,0,0,0,.56-1.57L10.12,6.27A1.94,1.94,0,0,0,7.63,5.12Z"/><g class="cls-3"><rect x="5" y="5" width="14" height="20"/><g class="cls-4"><g class="cls-5"><rect width="24" height="30"/><g class="cls-6"><rect x="5" y="5" width="14" height="20"/><g class="cls-4"><rect width="24" height="29.85"/></g><rect x="5" y="5" width="14" height="20"/><g class="cls-4"><rect x="5" y="5" width="14" height="20"/><g class="cls-4"><rect width="24" height="30"/></g></g></g></g></g></g></g></g></svg>