<svg xmlns="http://www.w3.org/2000/svg" xmlns:xlink="http://www.w3.org/1999/xlink" viewBox="0 0 26 26"><defs><style>.cls-1{clip-rule:evenodd;}.cls-2{fill-rule:evenodd;}.cls-3{clip-path:url(#clip-path);}.cls-4{clip-path:url(#clip-path-2);}.cls-5{isolation:isolate;}.cls-6{clip-path:url(#clip-path-3);}</style><clipPath id="clip-path"><path class="cls-1" d="M14.42,14.42a4.27,4.27,0,1,0-6,0A4.29,4.29,0,0,0,14.42,14.42Zm.23,2.49a6.41,6.41,0,1,1,2.26-2.26l3.54,3.54a1.6,1.6,0,0,1-2.26,2.26Z"/></clipPath><clipPath id="clip-path-2"><rect x="5" y="5" width="16" height="16"/></clipPath><clipPath id="clip-path-3"><rect width="26" height="26"/></clipPath></defs><title>Asset 3</title><g id="Layer_2" data-name="Layer 2"><g id="Layer_1-2" data-name="Layer 1"><path class="cls-2" d="M14.42,14.42a4.27,4.27,0,1,0-6,0A4.29,4.29,0,0,0,14.42,14.42Zm.23,2.49a6.41,6.41,0,1,1,2.26-2.26l3.54,3.54a1.6,1.6,0,0,1-2.26,2.26Z"/><g class="cls-3"><rect x="5" y="5" width="16" height="16"/><g class="cls-4"><g class="cls-5"><rect width="26" height="26"/><g class="cls-6"><rect x="5" y="5" width="16" height="16"/><g class="cls-4"><rect width="25.92" height="25.92"/></g><rect x="5" y="5" width="16" height="16"/><g class="cls-4"><rect x="5" y="5" width="16" height="16"/><g class="cls-4"><rect width="26" height="26"/></g></g></g></g></g></g></g></g></svg>