<svg xmlns="http://www.w3.org/2000/svg" xmlns:xlink="http://www.w3.org/1999/xlink" viewBox="0 0 24 24"><defs><style>.cls-1{clip-rule:evenodd;}.cls-2{fill-rule:evenodd;}.cls-3{clip-path:url(#clip-path);}.cls-4{clip-path:url(#clip-path-2);}.cls-5{isolation:isolate;}.cls-6{clip-path:url(#clip-path-3);}.cls-7{clip-path:url(#clip-path-4);}</style><clipPath id="clip-path"><path class="cls-1" d="M14.19,16.37,12,14.19,9.81,16.37a1.53,1.53,0,0,1-2.18,0h0a1.55,1.55,0,0,1,0-2.18L9.81,12,7.63,9.81A1.54,1.54,0,0,1,9.81,7.63h0L12,9.81l2.19-2.18a1.53,1.53,0,0,1,2.18,0h0a1.55,1.55,0,0,1,0,2.18L14.19,12l2.18,2.19a1.54,1.54,0,1,1-2.18,2.18Z"/></clipPath><clipPath id="clip-path-2"><rect x="5" y="5" width="14" height="14"/></clipPath><clipPath id="clip-path-3"><rect x="2" y="2" width="20" height="20"/></clipPath><clipPath id="clip-path-4"><rect x="7" y="7" width="10" height="10"/></clipPath></defs><title>Asset 7</title><g id="Layer_2" data-name="Layer 2"><g id="Layer_1-2" data-name="Layer 1"><path class="cls-2" d="M14.19,16.37,12,14.19,9.81,16.37a1.53,1.53,0,0,1-2.18,0h0a1.55,1.55,0,0,1,0-2.18L9.81,12,7.63,9.81A1.54,1.54,0,0,1,9.81,7.63h0L12,9.81l2.19-2.18a1.53,1.53,0,0,1,2.18,0h0a1.55,1.55,0,0,1,0,2.18L14.19,12l2.18,2.19a1.54,1.54,0,1,1-2.18,2.18Z"/><g class="cls-3"><rect x="5" y="5" width="14" height="14"/><g class="cls-4"><g class="cls-5"><rect x="2" y="2" width="20" height="20"/><g class="cls-6"><rect x="7" y="7" width="10" height="10"/><g class="cls-7"><rect x="2.18" y="2.18" width="19.65" height="19.65"/></g><rect x="5" y="5" width="14" height="14"/><g class="cls-4"><rect x="7" y="7" width="10" height="10"/><g class="cls-7"><rect width="24" height="24"/></g></g></g></g></g></g></g></g></svg>