<svg xmlns="http://www.w3.org/2000/svg" xmlns:xlink="http://www.w3.org/1999/xlink" viewBox="0 0 28 24"><defs><style>.cls-1{clip-rule:evenodd;}.cls-2{fill-rule:evenodd;}.cls-3{clip-path:url(#clip-path);}.cls-4{clip-path:url(#clip-path-2);}.cls-5{isolation:isolate;}.cls-6{clip-path:url(#clip-path-3);}.cls-7{clip-path:url(#clip-path-5);}</style><clipPath id="clip-path"><path class="cls-1" d="M5.9,16.58H22.1a.92.92,0,0,1,0,1.84H5.9a.92.92,0,0,1,0-1.84Zm0-5.5H22.1a.92.92,0,0,1,0,1.84H5.9a.92.92,0,0,1,0-1.84Zm0-5.5H22.1a.92.92,0,0,1,0,1.84H5.9a.92.92,0,0,1,0-1.84Z"/></clipPath><clipPath id="clip-path-2"><rect x="5" y="5" width="18" height="14"/></clipPath><clipPath id="clip-path-3"><rect width="28" height="24"/></clipPath><clipPath id="clip-path-5"><rect x="5" y="5.58" width="18" height="13"/></clipPath></defs><title>Asset 9</title><g id="Layer_2" data-name="Layer 2"><g id="Layer_1-2" data-name="Layer 1"><path class="cls-2" d="M5.9,16.58H22.1a.92.92,0,0,1,0,1.84H5.9a.92.92,0,0,1,0-1.84Zm0-5.5H22.1a.92.92,0,0,1,0,1.84H5.9a.92.92,0,0,1,0-1.84Zm0-5.5H22.1a.92.92,0,0,1,0,1.84H5.9a.92.92,0,0,1,0-1.84Z"/><g class="cls-3"><rect x="5" y="5" width="18" height="14"/><g class="cls-4"><g class="cls-5"><rect width="28" height="24"/><g class="cls-6"><rect x="5" y="5" width="18" height="14"/><g class="cls-4"><rect y="0.58" width="28" height="22.83"/></g><rect x="5" y="5.58" width="18" height="13"/><g class="cls-7"><rect x="5" y="5" width="18" height="14"/><g class="cls-4"><rect y="0.58" width="28" height="23"/></g></g></g></g></g></g></g></g></svg>