<svg xmlns="http://www.w3.org/2000/svg" xmlns:xlink="http://www.w3.org/1999/xlink" viewBox="0 0 24 25"><defs><style>.cls-1{clip-path:url(#clip-path);}.cls-2{clip-path:url(#clip-path-2);}.cls-3{isolation:isolate;}.cls-4{clip-path:url(#clip-path-3);}</style><clipPath id="clip-path"><path d="M17.6,9.09h-6a1,1,0,0,0-1,1v2.39a.7.7,0,0,1-1.4,0V8.73a1,1,0,0,1,1-1h2.2a1,1,0,0,0,1-1V6a1,1,0,0,0-1-1H8.8a1,1,0,0,0-1,1V9.09H6.4A1.38,1.38,0,0,0,5,10.45v8.19A1.38,1.38,0,0,0,6.4,20H17.6A1.38,1.38,0,0,0,19,18.64V10.45A1.38,1.38,0,0,0,17.6,9.09Z"/></clipPath><clipPath id="clip-path-2"><rect x="5" y="5" width="14" height="15"/></clipPath><clipPath id="clip-path-3"><rect width="24" height="25"/></clipPath></defs><title>Asset 4</title><g id="Layer_2" data-name="Layer 2"><g id="Layer_1-2" data-name="Layer 1"><path d="M17.6,9.09h-6a1,1,0,0,0-1,1v2.39a.7.7,0,0,1-1.4,0V8.73a1,1,0,0,1,1-1h2.2a1,1,0,0,0,1-1V6a1,1,0,0,0-1-1H8.8a1,1,0,0,0-1,1V9.09H6.4A1.38,1.38,0,0,0,5,10.45v8.19A1.38,1.38,0,0,0,6.4,20H17.6A1.38,1.38,0,0,0,19,18.64V10.45A1.38,1.38,0,0,0,17.6,9.09Z"/><g class="cls-1"><rect x="5" y="5" width="14" height="15"/><g class="cls-2"><g class="cls-3"><rect width="24" height="25"/><g class="cls-4"><rect x="5" y="5" width="14" height="15"/><g class="cls-2"><rect width="24" height="25"/></g><rect x="5" y="5" width="14" height="15"/><g class="cls-2"><rect x="5" y="5" width="14" height="15"/><g class="cls-2"><rect width="24" height="25"/></g></g></g></g></g></g></g></g></svg>