<svg xmlns="http://www.w3.org/2000/svg" xmlns:xlink="http://www.w3.org/1999/xlink" viewBox="0 0 29 26"><defs><style>.cls-1{clip-path:url(#clip-path);}.cls-2{clip-path:url(#clip-path-2);}.cls-3{isolation:isolate;}.cls-4{clip-path:url(#clip-path-3);}</style><clipPath id="clip-path"><path d="M22.2,8.07a1,1,0,0,0,.23-1.21h0a.67.67,0,0,0-1-.27L15,11.34a.84.84,0,0,1-1,0L7.58,6.59h0a.67.67,0,0,0-1,.28A1,1,0,0,0,6.8,8.07L14,13.55a.81.81,0,0,0,1,0ZM22.1,5A2,2,0,0,1,24,7V19a2,2,0,0,1-1.9,2H6.9A2,2,0,0,1,5,19V7A2,2,0,0,1,6.9,5Z"/></clipPath><clipPath id="clip-path-2"><rect x="5" y="5" width="19" height="16"/></clipPath><clipPath id="clip-path-3"><rect width="29" height="26"/></clipPath></defs><title>Asset 6</title><g id="Layer_2" data-name="Layer 2"><g id="Layer_1-2" data-name="Layer 1"><path d="M22.2,8.07a1,1,0,0,0,.23-1.21h0a.67.67,0,0,0-1-.27L15,11.34a.84.84,0,0,1-1,0L7.58,6.59h0a.67.67,0,0,0-1,.28A1,1,0,0,0,6.8,8.07L14,13.55a.81.81,0,0,0,1,0ZM22.1,5A2,2,0,0,1,24,7V19a2,2,0,0,1-1.9,2H6.9A2,2,0,0,1,5,19V7A2,2,0,0,1,6.9,5Z"/><g class="cls-1"><rect x="5" y="5" width="19" height="16"/><g class="cls-2"><g class="cls-3"><rect width="29" height="26"/><g class="cls-4"><rect x="5" y="5" width="19" height="16"/><g class="cls-2"><rect width="29" height="26"/></g><rect x="5" y="5" width="19" height="16"/><g class="cls-2"><rect x="5" y="5" width="19" height="16"/><g class="cls-2"><rect width="29" height="26"/></g></g></g></g></g></g></g></g></svg>