<svg xmlns="http://www.w3.org/2000/svg" xmlns:xlink="http://www.w3.org/1999/xlink" viewBox="0 0 18 22"><defs><style>.cls-1{clip-rule:evenodd;}.cls-2{fill-rule:evenodd;}.cls-3{clip-path:url(#clip-path);}.cls-4{clip-path:url(#clip-path-2);}.cls-5{isolation:isolate;}.cls-6{clip-path:url(#clip-path-3);}.cls-7{clip-path:url(#clip-path-4);}</style><clipPath id="clip-path"><path class="cls-1" d="M5.75,14.91l3.46-3.17a1,1,0,0,0,.06-1.42l-.06-.06L5.75,7.09a1,1,0,0,1,0-1.34l0,0,.07-.06a1,1,0,0,1,1.36,0l5,4.63a1,1,0,0,1,.06,1.42l-.06.06-5,4.63a1,1,0,0,1-1.36,0l-.07-.06A.94.94,0,0,1,5.7,15Z"/></clipPath><clipPath id="clip-path-2"><rect x="5" y="5" width="9" height="12"/></clipPath><clipPath id="clip-path-3"><rect width="18" height="22"/></clipPath><clipPath id="clip-path-4"><rect x="5" y="5" width="8" height="12"/></clipPath></defs><title>Asset 8</title><g id="Layer_2" data-name="Layer 2"><g id="Layer_1-2" data-name="Layer 1"><path class="cls-2" d="M5.75,14.91l3.46-3.17a1,1,0,0,0,.06-1.42l-.06-.06L5.75,7.09a1,1,0,0,1,0-1.34l0,0,.07-.06a1,1,0,0,1,1.36,0l5,4.63a1,1,0,0,1,.06,1.42l-.06.06-5,4.63a1,1,0,0,1-1.36,0l-.07-.06A.94.94,0,0,1,5.7,15Z"/><g class="cls-3"><rect x="5" y="5" width="9" height="12"/><g class="cls-4"><g class="cls-5"><rect width="18" height="22"/><g class="cls-6"><rect x="5" y="5" width="8" height="12"/><g class="cls-7"><rect x="0.45" y="0.37" width="17.08" height="21.27"/></g><rect x="5" y="5" width="8" height="12"/><g class="cls-7"><rect x="5" y="5" width="8" height="12"/><g class="cls-7"><rect width="18" height="22"/></g></g></g></g></g></g></g></g></svg>