<svg xmlns="http://www.w3.org/2000/svg" viewBox="0 0 40 82"><title>Favicon</title><g id="Layer_2" data-name="Layer 2"><g id="Layer_1-2" data-name="Layer 1"><path d="M11.78,19.09c-3.14,0-3.15,4.88,0,4.88S14.93,19.09,11.78,19.09Z"/><path d="M28.22,19.09c-3.14,0-3.15,4.88,0,4.88S31.37,19.09,28.22,19.09Z"/><path d="M35.61,0H4.39A4.4,4.4,0,0,0,0,4.39V45.9H0c0,1.85,0,3.8,0,5.78C0,55.79,0,60,0,63.78,0,72.48,1.17,81.35,9.64,82v0h26A4.4,4.4,0,0,0,40,77.61V4.39A4.4,4.4,0,0,0,35.61,0Zm-32,4.39a.76.76,0,0,1,.75-.76H19.46a1.81,1.81,0,0,0-1.28,1.72V6.47a1.81,1.81,0,0,0-3.45,1,1.81,1.81,0,0,0-3.12,1.75l-.1-.1a1.82,1.82,0,0,0-2.82,2.27,4.48,4.48,0,0,0-1.35-.24,5.78,5.78,0,0,0-3.7,1.39Zm0,24A8.19,8.19,0,0,0,6.15,29c.71.08,1.36.17,2,.27A11.64,11.64,0,0,0,3.64,32Zm7,50c-3.37,0-7-1.13-7-14.59,0-3.74,0-8,0-12.1,0-3.85,0-7.59,0-10.68a8.36,8.36,0,0,1,8.72-8.76,17.79,17.79,0,0,1,4.58.62,8.52,8.52,0,0,0,1.15.35,14.79,14.79,0,0,1,4.43,2.47,17.41,17.41,0,0,0-1,5.86c0,11,.94,18.58,3.05,23.21a33.37,33.37,0,0,1-6.19,8.86C15.16,76.88,12.08,78.37,10.6,78.37Zm25.76-.76a.76.76,0,0,1-.75.76H18.54A29,29,0,0,0,21,76.17a36.63,36.63,0,0,0,5.91-8A8.06,8.06,0,0,0,33,70.63a8.79,8.79,0,0,0,3.4-.61ZM25.21,41.54a15.26,15.26,0,0,1,.24-2.68,16.85,16.85,0,0,1,2.83,9.45v0a37.85,37.85,0,0,1-1.59,11.11C25.78,55.63,25.21,50,25.21,41.54ZM36.36,63.68c0,2.45-.89,3.32-3.4,3.32a4.78,4.78,0,0,1-4.26-2.44,40.83,40.83,0,0,0,3.21-16.23A19.22,19.22,0,0,0,27,34.85a6,6,0,0,1,5.14-2.68c2.36,0,4.2,2.18,4.2,4.95Zm0-33.83a7.47,7.47,0,0,0-1.85-.93,8.12,8.12,0,0,0,1.85-.53Zm-2.88-4.43a23,23,0,0,0-9.93,3.13A6.73,6.73,0,0,1,20,29.8a4.52,4.52,0,0,1-1.2-.16l-.36-.11a12.89,12.89,0,0,1-2-1,23,23,0,0,0-9.94-3.13c-1.43-.14-2.87-.88-2.87-2.2,0-2.19.68-8.45,3.69-8.45,1,0,4.12,2.28,5.46,3.24,2.21,1.6,3,2.15,3.95,2.15a1.83,1.83,0,0,0,1.82-1.82c0-.51,2.88-.51,2.88,0a1.83,1.83,0,0,0,1.82,1.82c.91,0,1.68-.55,3.73-2,1.4-1,4.66-3.34,5.68-3.36,3,0,3.69,6.26,3.69,8.45C36.36,24.54,34.92,25.28,33.48,25.42Zm2.88-12.89a5.77,5.77,0,0,0-3.69-1.39,5,5,0,0,0-1.37.24,1.81,1.81,0,0,0-2.8-2.27l-.1.1a1.81,1.81,0,0,0-3.13-1.74,1.81,1.81,0,0,0-3.45-1V5.35a1.81,1.81,0,0,0-1.28-1.72H35.61a.76.76,0,0,1,.75.76Z"/></g></g></svg>