<svg xmlns="http://www.w3.org/2000/svg" viewBox="0 0 376.79 794.82"><defs><style>.cls-1{fill:#d87000;}</style></defs><title>Lines-rugged orange</title><g id="Layer_2" data-name="Layer 2"><g id="Layer_1-2" data-name="Layer 1"><g id="Layer_2-2" data-name="Layer 2"><g id="Layer_5" data-name="Layer 5"><path class="cls-1" d="M343.24,0H33.55A33.59,33.59,0,0,0,0,33.55V458.26l.26-.08C.23,472.79.2,488,.17,503.51.09,544.35,0,586.58,0,623.83,0,684.67,6.88,725.71,21.65,753c15.24,28.14,39.27,41.82,73.44,41.82H343.24a33.59,33.59,0,0,0,33.55-33.54V33.55A33.59,33.59,0,0,0,343.24,0ZM16,254.3c9.23,7.77,22,12.81,36,14.21,29.42,3,49.43,9.13,64.81,15.83-1.27,0-2.54-.06-3.81-.06-31.51,0-60.14,11.21-80.61,31.56A103.18,103.18,0,0,0,16,337ZM35.72,745.36C22.45,720.87,16,681.11,16,623.83c0-37.23.09-79.45.17-120.28.08-38.8.15-75.44.15-106.15,0-57.18,39.75-97.12,96.61-97.12a184.47,184.47,0,0,1,49,6.85,73.67,73.67,0,0,0,9.64,3,164.59,164.59,0,0,1,54.23,31.13c-8,18.74-11.8,40.17-11.8,61.54,0,98.8,10.31,172.83,30.65,220,.94,2.18,1.9,4.26,2.86,6.29-17,37.66-40.3,72-67.65,99.39-25,25-60.84,50.28-84.77,50.28C66.94,778.8,48.08,768.18,35.72,745.36ZM280.54,470.14v.07c.15,48.59-8.07,95-24.45,138.24C238.78,563,230,493.86,230,402.8c0-17.94,2.84-34.84,8.17-49.51C266.18,383.63,280.8,423.77,280.54,470.14ZM245.29,337.62q2.07-3.71,4.41-7.1c14.14-20.48,34.12-30.87,59.37-30.87,29,0,51.72,26,51.72,59.18V579c0,64-25.2,86.76-48.79,86.76-17.79,0-33.82-12.77-46.81-37.11,21-49.15,31.52-102.46,31.35-158.5C296.83,417.17,279.12,371.48,245.29,337.62Zm115.5,423.64a17.56,17.56,0,0,1-17.55,17.54H142.1c16-9.44,32.9-22.73,49.1-39,26.06-26.15,48.63-58.18,65.87-93.37C275.6,675.06,296.46,681.8,312,681.8c17.88,0,34-8.86,45.42-25,1.18-1.66,2.29-3.42,3.37-5.23ZM309.07,283.65c-35.53,0-60.44,17.52-75.82,43a177.6,177.6,0,0,0-24.94-17.28c10-2.87,18.61-7.68,28-12.94,18.47-10.31,41.46-23.14,88.45-27.91,14-1.4,26.76-6.44,36-14.21v55.52C348.46,293.72,330,283.65,309.07,283.65Zm14.12-31.06c-50.29,5.1-74.88,18.83-94.64,29.86-14.19,7.92-24.45,13.64-40.16,13.64a55.76,55.76,0,0,1-12.61-1.39c-2.86-1-5.75-1.87-8.67-2.72-6.08-2.4-12-5.7-18.87-9.53-19.76-11-44.35-24.76-94.66-29.86C34.88,250.72,16,240.15,16,220.74c0-14.19,2.29-37.6,8.76-56.86,8.27-24.65,21.05-37.16,38-37.16,12.65,0,41.12,20.53,60,34.11,20.33,14.65,27.4,19.39,33.35,19.39a8,8,0,0,0,.68-16c-3.56-1.18-15.25-9.61-24.67-16.4-29.18-21-52.81-37.13-69.32-37.13-14.42,0-33.25,6.1-46.74,32.62V33.55A17.57,17.57,0,0,1,33.55,16H343.24a17.57,17.57,0,0,1,17.55,17.55V143.34c-13.5-26.52-32.32-32.62-46.74-32.62-16.84,0-42.34,17.35-71.5,38.31-8.69,6.24-19.46,14-22.75,15.25a8,8,0,0,0,.94,15.94c5.54,0,12.33-4.68,31.15-18.2,18.36-13.2,49.11-35.3,62.16-35.3,16.93,0,29.7,12.51,38,37.16,6.46,19.26,8.76,42.67,8.76,56.86C360.79,240.15,341.91,250.72,323.19,252.59Z"/><path class="cls-1" d="M194,217.09a27.74,27.74,0,0,1-5.63,1.16,27.65,27.65,0,0,1-5.62-1.16,5.06,5.06,0,0,0-6.12,3.08c-2.21,5.91-5.67,16.93-5.67,27.94,0,16.17,14.93,34.84,17.41,34.84s17.42-18.67,17.42-34.84c0-11-3.46-22-5.67-27.94A5.06,5.06,0,0,0,194,217.09Z"/><path class="cls-1" d="M188.39,137.46a8,8,0,0,0,8-8V43.17a8,8,0,0,0-16,0v86.29a8,8,0,0,0,8,8Z"/><path class="cls-1" d="M173.1,102.27,161.55,59.18a8,8,0,0,0-15.45,4.14l11.54,43.09a8,8,0,0,0,7.73,5.94,7.6,7.6,0,0,0,2.07-.28,8,8,0,0,0,5.66-9.8Z"/><path class="cls-1" d="M128.9,71.22a8,8,0,1,0-13.86,8l39.18,67.86a8,8,0,0,0,13.86-8Z"/><path class="cls-1" d="M97,87.57a8,8,0,1,0-11.59,11,4,4,0,0,0,.29.29l20,20A8,8,0,0,0,117,107.58Z"/><path class="cls-1" d="M259.72,118.94A8,8,0,0,0,271,119h0l20-20a8,8,0,1,0-11.31-11.32h0l-20.06,20.06A8,8,0,0,0,259.72,118.94Z"/><path class="cls-1" d="M222.56,147.08l39.18-67.86a8,8,0,1,0-13.64-8.36l-.21.36-39.18,67.86a8,8,0,0,0,13.64,8.36Z"/><path class="cls-1" d="M211.57,111.8a8,8,0,0,0,7.72-5.93l11.35-42.34a8,8,0,1,0-15.46-4.14h0l-11.34,42.33a8,8,0,0,0,5.65,9.8A7.72,7.72,0,0,0,211.57,111.8Z"/><path class="cls-1" d="M106.84,171.69c-9.5,0-17.89,3.68-23.62,10.38a34.68,34.68,0,0,0,0,43.77c5.73,6.68,14.12,10.37,23.62,10.37s17.88-3.69,23.62-10.39a34.71,34.71,0,0,0,0-43.77C124.72,175.37,116.34,171.69,106.84,171.69Zm0,48.52c-7.1,0-15.4-4.26-15.4-16.25,0-15.82,13.82-16.27,15.4-16.27,7.1,0,15.39,4.25,15.39,16.24C122.23,219.75,108.41,220.21,106.84,220.21Z"/><path class="cls-1" d="M270,171.69c-9.49,0-17.88,3.68-23.62,10.38a34.71,34.71,0,0,0,0,43.77c5.73,6.68,14.12,10.37,23.62,10.37s17.88-3.69,23.62-10.39a34.71,34.71,0,0,0,0-43.77C287.84,175.37,279.45,171.69,270,171.69Zm0,48.52c-4.89,0-8.75-1.61-11.48-4.79a17.72,17.72,0,0,1-4-11.42c0-15.82,13.81-16.27,15.39-16.27,4.89,0,8.75,1.6,11.48,4.78A17.72,17.72,0,0,1,285.34,204C285.34,219.75,271.53,220.21,270,220.21Z"/></g></g></g></g></svg>